<svg xmlns="http://www.w3.org/2000/svg" viewBox="0 0 245.18 251.63"><defs><style>.cls-1{fill:#1e1e1d;opacity:0.49;}.cls-2{fill:#f0dd39;}.cls-3{fill:#c1af2b;}.cls-4{fill:#f1f2e4;}.cls-5,.cls-6{fill:#2891a3;}.cls-6{stroke:#000;}.cls-10,.cls-11,.cls-6,.cls-7,.cls-8,.cls-9{stroke-miterlimit:10;}.cls-6,.cls-7,.cls-9{stroke-width:4px;}.cls-10,.cls-7,.cls-8,.cls-9{fill:none;}.cls-10,.cls-11,.cls-7,.cls-8,.cls-9{stroke:#1d1d1b;}.cls-11,.cls-8{stroke-width:3px;}.cls-9{stroke-linecap:round;}.cls-10{stroke-width:3.58px;}.cls-11{fill:#ea7021;}</style></defs><g id="Layer_2" data-name="Layer 2"><g id="Layer_2-2" data-name="Layer 2"><path class="cls-1" d="M29.77,180.88a3.4,3.4,0,0,1-1.5-1.64c-.29-.94-4.15-2.69-3.53-3.46,3.56-4.42,16.76-4.48,22.32-5.61,2.37-.48,2-1.73,4.35-1.22,2.63.55,4.87,2.21,7,3.86a210.9,210.9,0,0,1,22,19.76c4.06,4.2,28.78,20.24,15.56,17.88C77.06,207.08,45.28,191.63,29.77,180.88Z"/><path class="cls-2" d="M189.2,56.43c-1.86,2.4-3.72,4.79-5.48,7.26-10,14.1-16.65,30.81-29.12,42.81,1,2.44,3.57,3.72,6,4.78q34.8,15.25,70.86,27.41a3.55,3.55,0,0,1,1.69.95c1,1.21.06,3-1,4.23a68,68,0,0,1-9.77,8.79c-10.89,8.61-22.39,17.49-36,20-8.44,1.53-22.62,6.31-31.2,6.3-16.84,0-28.26-1.78-44.89-4.41a63.36,63.36,0,0,1-20.07-6.74,58,58,0,0,0-8.24-4.1c-2.34-.81-4.8-1.17-7.19-1.78a35.65,35.65,0,0,1-14.53-7.64c-2.93-2.56-7.63-2.31-10.92-4.39L30.37,137.93a4,4,0,0,1-1.66-1.57c-.47-1.07.06-2.29.59-3.33q5.81-11.52,11.63-23c3.12-6.17,6.29-12.42,11-17.53,4.27-4.69,9.64-8.24,14.45-12.38,3.16-2.72,6.1-5.71,9.48-8.15a60.72,60.72,0,0,1,12.3-6.49c10.25-4.3,21.08-7.66,32.19-7.86,12-.23,24.65,0,36.48-2,8.1-1.37,16.1-3.69,24.32-3.84a10.86,10.86,0,0,1,4.81.73C187.4,53.19,189.23,54.8,189.2,56.43Z"/><path class="cls-3" d="M157.17,110.39a28.89,28.89,0,0,1,13,5.37,5.53,5.53,0,0,0,1.53.91,6.61,6.61,0,0,0,2,.14,18.18,18.18,0,0,1,5.94,1.43q27.38,10,54.17,21.57c-.44,3.11-2.77,5.59-5.08,7.72-6.39,5.91-13.52,11-20.63,16-1.22.87-24.41-6.84-29.41-9-3.57-1.54-7.14-3.08-10.82-4.35-2.32-.79-7.24-1-8.82-3.06s-.65-7.56-.7-10.14q-.13-6.27-.4-12.53Q157.66,117.44,157.17,110.39Z"/><path class="cls-3" d="M61.7,96.29c5.28-2.38,11.22-2.73,17-3.31,14.59-1.45,46.07-7.85,46.93-7.68,1.14.23.48-.86,1.22,0A81.87,81.87,0,0,0,152.46,106c2.93-3,6.91-4.85,10.23-7.46C168.38,94,171.88,87.39,175.23,81c4.13-8,19.76-25.77,19.15-27.07-.51-1.09-7.76-2.53-8.89-2.93a68,68,0,0,0-46.36.48c-8.95,3.38-17.29,8.71-26.74,10.21a68.86,68.86,0,0,1-11.31.55l-19.3-.13c-5.67,0-11.88.11-16.2,3.79-2.9,2.46-4.44,6.15-5.52,9.8a56.65,56.65,0,0,0-2.27,17.07"/><path class="cls-2" d="M136.41,18.93a35.7,35.7,0,0,1-.74-9.74A7.11,7.11,0,0,1,136,6.71a5.76,5.76,0,0,1,1.4-2,9.35,9.35,0,0,1,4.14-2.44,6.18,6.18,0,0,1,4.69.62,8.61,8.61,0,0,1,2.68,3,22.89,22.89,0,0,1,3.2,10.45"/><path class="cls-2" d="M85.24,27a18.15,18.15,0,0,1-1.54-7.13,11.24,11.24,0,0,1,1.93-5.47,7.79,7.79,0,0,1,2.57-2.6,7.09,7.09,0,0,1,3-.8,11.51,11.51,0,0,1,9.22,4,13.59,13.59,0,0,1,3.15,9.65"/><path class="cls-4" d="M140,64.49a8.1,8.1,0,0,0,5.91,4.34,14.92,14.92,0,0,0,7.5-.75,12.14,12.14,0,0,0,5-2.8A5.93,5.93,0,0,0,160.13,60c.5,1.25,2.33,2.69,3.49,3.39A18.75,18.75,0,0,0,167.34,65a4.79,4.79,0,0,0,4,.09,15.76,15.76,0,0,0,5.48-2.81,6.4,6.4,0,0,0,2.36-5.46"/><path class="cls-4" d="M117.89,68.22,119.13,71a7.2,7.2,0,0,0,1.1,1.9,6.29,6.29,0,0,0,4.32,1.68,19.69,19.69,0,0,0,11.23-2.6,8.23,8.23,0,0,0,3.34-3.17,3.88,3.88,0,0,0-.43-4.36"/><path class="cls-4" d="M96.7,72.6a30.41,30.41,0,0,1,2,3.18,8.18,8.18,0,0,0,6.65,3A19,19,0,0,0,112.67,77,10,10,0,0,0,115,75.74a5.56,5.56,0,0,0,1.35-6.84,1.13,1.13,0,0,0-1.15-.69c-4.66-.24-9.23,1.4-13.9,1.52a26.93,26.93,0,0,0-4.5.23"/><path class="cls-4" d="M79.82,73.77a15,15,0,0,0,1.37,4.56,5.65,5.65,0,0,0,3.58,3c1.76.38,3.55-.37,5.19-1.11A8.32,8.32,0,0,0,92.3,78.8a8.71,8.71,0,0,0,1.48-2.06c1-1.81,2.11-3.74,2-5.82A112.74,112.74,0,0,0,84,70.3c-1.27,0-2.82.13-3.35,1.28"/><path class="cls-4" d="M212.23,159.8a12.34,12.34,0,0,1,2.83-10.7,8.41,8.41,0,0,1,1.28-1.18,6.18,6.18,0,0,1,5.21-.91,2.22,2.22,0,0,1,.94.48c.85.84.22,2.31.56,3.45a1.45,1.45,0,0,1,1.4,2.17,3.2,3.2,0,0,1-1.27,1,36.15,36.15,0,0,0-8.12,6.12"/><path class="cls-4" d="M198.72,167.79a26.88,26.88,0,0,1,1-8.95c.46-1.79,1.22-3.77,2.94-4.45a4,4,0,0,1,3,.13,8.37,8.37,0,0,1,2.48,1.74,19,19,0,0,1,4.2,5.85"/><path class="cls-4" d="M180.61,173.54a12.78,12.78,0,0,1-.89-6.81,6.64,6.64,0,0,1,4.14-5.17,4,4,0,0,1,1.58-.22,5.34,5.34,0,0,1,1.9.56,26.64,26.64,0,0,1,4.63,2.91l3,2.2a4.12,4.12,0,0,1,2,2.42"/><path class="cls-4" d="M161.52,178.37a19.63,19.63,0,0,1-.4-6.3,5.24,5.24,0,0,1,.4-1.79c.7-1.53,2.46-2.25,4.08-2.71a15.31,15.31,0,0,1,4.24-.71,7.34,7.34,0,0,1,4.09,1.15,10.67,10.67,0,0,1,2.2,2.2c.83,1,1.63,2,2.43,3.06a2.25,2.25,0,0,1,.57,1.14"/><path class="cls-4" d="M144.29,179.38l-.28-1.84a4.38,4.38,0,0,1,0-2.13,4.32,4.32,0,0,1,1-1.4,9.36,9.36,0,0,1,2.6-2.14,8,8,0,0,1,3.07-.65c.67,0,1.34-.05,2,0a3.27,3.27,0,0,1,.76.08,3.18,3.18,0,0,1,1,.47,7.17,7.17,0,0,1,4.29,5.94,1.13,1.13,0,0,1-.09.94,1.12,1.12,0,0,1-.48.26c-4.25,1.39-9,.38-13.3,1.51"/><path class="cls-4" d="M106.35,168c1.61-1.83,4.14-3.19,6.46-2.44a6.88,6.88,0,0,1,3.1,2.43,18.52,18.52,0,0,1,4,9.94c-2.67.66-5.39-.56-8-1.52a43.64,43.64,0,0,0-4.34-1.36c-1.13-.3-3.52-.27-4.44-.9-1.08-.75.28-1.89.91-2.9A25.14,25.14,0,0,1,106.35,168Z"/><path class="cls-4" d="M129.66,172.85c1.61-1.83,4.14-3.2,6.46-2.45a7,7,0,0,1,3.1,2.43,18.55,18.55,0,0,1,4,9.95c-2.67.66-5.39-.57-8-1.53a43.64,43.64,0,0,0-4.34-1.36c-1.13-.29-5.84-.33-6.76-1-1.08-.74,1.35-2.53,2-3.54S128.79,173.84,129.66,172.85Z"/><path class="cls-5" d="M202.06,167.49c12.86-5.5,25.5-13.38,32.19-25.66-6,14-15,26.63-21.49,40.48a10.7,10.7,0,0,1-2.44,3.79,10.1,10.1,0,0,1-3.52,1.7l-16.18,5.39a36.67,36.67,0,0,1-7.11,1.86c-2,.24-4.09.16-6.1.52a27.55,27.55,0,0,0-6.09,2.14c-4.12,1.82-26.23,7.56-29.46,7.88-3.45.33-6.64,1.87-10,2.88-4.61,1.41-9.47,1.79-14.28,2.17l-16.75,1.3c-.85.06-3-13.27-3.22-14.58A106.21,106.21,0,0,1,96.51,182a71.62,71.62,0,0,1,.26-7.47c.32-3.16,2.06-1.64,4.54-.92q6.75,1.95,13.69,3.25a152.47,152.47,0,0,0,56.58-.13A147.57,147.57,0,0,0,202.06,167.49Z"/><path class="cls-5" d="M38.23,168c3.23,6.38,6.83,9.92,12.87,13.74,2.28,1.43,5,5.32,7.46,6.45,14.5,6.7,26.84,17.66,41.76,23.36.84-6.41-1.62-12.72-2.9-19.05a46.76,46.76,0,0,1-1-10.08c.06-3.78.45-8.09-2.17-10.81a12.4,12.4,0,0,0-3-2.06c-7.42-4.17-14.93-8.38-23.14-10.66-2-.56-4-1-5.93-1.73-2.31-.88-9-3.39-11.12-4.66-8-4.83-11.3-8.46-19.27-13.26-1-.6-3-2.16-4.34-1.39-1.55.9-.32,2.85.12,4.22q2,6.22,4.41,12.28Q34.86,161.34,38.23,168Z"/><path class="cls-6" d="M157.67,16.85a3,3,0,0,1,2.8,1.08c3.77,4.65,16.1,16.77,18.14,18.13C180.47,37.3,192,48.32,195.1,51.78a1.29,1.29,0,0,1-.72,2.11l-43.46,7.38s-45.88,8-49.91,8S78.47,71,78.47,71V40.34a82.26,82.26,0,0,1,1.14-10.81A1.81,1.81,0,0,1,81,28c5.09-1.07,22.19-3.52,31.25-4.61C121.05,22.38,150.27,18,157.67,16.85Z"/><path class="cls-5" d="M24,135.08a.8.8,0,0,1-1.38-.33,13.51,13.51,0,0,1-.3-3.42c.11-3.35,1.47-16.31,1.94-17.93s.47-12.13.93-15.14,6-8.82,6-8.82L77.39,31.89,78.47,71Z"/><path class="cls-7" d="M24,135.08,78.47,71,77.39,31.89,31.26,89.44s-5.57,5.8-6,8.82-.47,13.51-.93,15.14S22.46,128,22.35,131.33a13.51,13.51,0,0,0,.3,3.42A.8.8,0,0,0,24,135.08Z"/><path class="cls-8" d="M79.63,71a37.87,37.87,0,0,0,.85,6.56,5.59,5.59,0,0,0,1.74,2.83c1.28,1,3,.88,4.63.75a13.2,13.2,0,0,0,4.81-1.47c1.94-1.27,2.13-3.4,3.06-4.93a7.1,7.1,0,0,0,1.07-5.13"/><path class="cls-8" d="M96.08,71.36c0,1.49,1,2.78,2,3.92a10.58,10.58,0,0,0,2,1.92,9.55,9.55,0,0,0,5.9,1.18,17.48,17.48,0,0,0,9.62-2.92,3.62,3.62,0,0,0,1-1,4.12,4.12,0,0,0,.51-1.76,15.68,15.68,0,0,0-.35-5.5"/><path class="cls-8" d="M118,68.67l1.32,3a4.48,4.48,0,0,0,1.49,2.14,4,4,0,0,0,1.66.49,22.54,22.54,0,0,0,15.63-3.71,4.4,4.4,0,0,0,1.69-1.76c.72-1.62-.43-3.47-.26-5.23"/><path class="cls-8" d="M139.6,64.92a6.78,6.78,0,0,0,3.55,3.16,12.45,12.45,0,0,0,4.76.84,16.29,16.29,0,0,0,6.52-1.14,10.46,10.46,0,0,0,5-4.22c.62-1.06,1.2-2.19.75-3.32a10,10,0,0,0,5.71,4.66,16.25,16.25,0,0,0,4.06.44,5.58,5.58,0,0,0,3.43-.74c2.36-1.15,4.94-2.53,5.8-5a10.09,10.09,0,0,0,.31-3.68"/><path class="cls-8" d="M136,71.9,127,85s-28.7,6-34.68,6.83-33.79,4.7-33.79,4.7"/><path class="cls-7" d="M127,85s5.85,6.32,11.34,11.53c4.27,4.06,13.12,9.1,15.8,10.59a.43.43,0,0,1,0,.77c-2.75,1.1-11.64,4.65-17.16,6.66-6.6,2.4-18.39,4.4-25.79,6.6s-26.78,4.8-34.58,6.2-51.82,6.92-51.82,6.92,5.64,15.91,9.74,24.54c3.82,8,8.75,17.56,8.75,17.56s39.5,27.13,43.11,28.1S101,212.67,101,212.67s30.34-5.29,37.32-6.74,20-4,25-5.44,30.59-7.8,34-8.76,11.55-5.3,12.52-5.54,9.63-19.26,11.07-21.67,11.08-20.23,12.52-22.87L234.9,139s-22.52-6.79-27.93-9.15c-5.75-2.51-22.75-10.06-29.38-12.52-4.56-1.69-18-7.71-18-7.71l-5.47-1.71s16.23-19.46,18.31-23.69,23.1-31.39,23.1-31.39"/><path class="cls-7" d="M24.74,134.29S45.82,149,49.94,151.85c3.35,2.28,28.48,12,33,14.13,1.17.55,13,6.42,13,6.42s.67,17.77,1.33,21.2S101,212.67,101,212.67"/><path class="cls-7" d="M233.45,141.65a49.41,49.41,0,0,1-17.29,17.68c-12.91,7.81-21.74,13-44.62,17.37A164.84,164.84,0,0,1,118,177.85a180.62,180.62,0,0,1-22.09-5.45"/><path class="cls-8" d="M101.34,173.3l2.73-3.2a18.66,18.66,0,0,1,4.82-4.44,5.14,5.14,0,0,1,3.51-.69,6.14,6.14,0,0,1,3.31,2.69,47.53,47.53,0,0,1,4.89,9.84"/><path class="cls-8" d="M143.37,178.92a7.34,7.34,0,0,1,2-6.08,8.21,8.21,0,0,1,8.65-1.67,10.4,10.4,0,0,1,6,6.74"/><path class="cls-8" d="M180.56,174c-.6-2.44-1.27-5-.84-7.43s2.35-4.9,4.86-5a7.19,7.19,0,0,1,2.8.6,24.69,24.69,0,0,1,9.77,6.86"/><path class="cls-8" d="M212.67,161.52a12.68,12.68,0,0,1,1.56-12.2,7.56,7.56,0,0,1,2.92-2.47,4.28,4.28,0,0,1,3.73,0,6.61,6.61,0,0,1,1.63,1.45,45.86,45.86,0,0,1,2.88,3.63"/><path class="cls-8" d="M122.75,178a25.11,25.11,0,0,1,9-6.94c1.82-.83,4.06-1.4,5.73-.31a6.89,6.89,0,0,1,2,2.47l3,5.24"/><path class="cls-8" d="M160.91,177.13c-.33-1.75-.63-5.39.37-7.11,2-3.47,5.69-3,8.93-3.17a8,8,0,0,1,4,1,7.25,7.25,0,0,1,2.29,2,30.1,30.1,0,0,1,2.67,3.79"/><path class="cls-8" d="M199.08,168.1c-.25-2.7-.94-4.32-.26-6.94.23-.85.69-2.95,1-4a7.09,7.09,0,0,1,1.48-2.25c1.42-1.4,3.81-.26,5.54.73a12.67,12.67,0,0,1,4,4.35,5.32,5.32,0,0,0,1.33,1.57"/><path class="cls-8" d="M85.9,167.44s63.55-16.76,67.79-17.73c2.53-.58,4.72-.83,4.72-.83s-.51-39-2.4-40.37"/><path class="cls-8" d="M157.91,148.76s15.23,3.29,23.65,7.07c4.88,2.19,17,7.08,17,7.08"/><path class="cls-7" d="M84.12,27.14a21,21,0,0,1,.3-9.67c1-3.09,3.5-5.87,6.7-6.41s6.6,1.36,8.65,4,3.09,5.89,4.09,9.07"/><path class="cls-9" d="M92,25.21c-.56-1.93-1.33-3.83-1.52-5.13-.22-1.48.3-2.38,1.65-2.53a3.07,3.07,0,0,1,3.35,1.82,27.92,27.92,0,0,1,1.36,5.17"/><path class="cls-10" d="M136.4,18.35l-.61-4a25,25,0,0,1-.43-5.1A8.45,8.45,0,0,1,137,4.48a7.11,7.11,0,0,1,5-2.66,7.25,7.25,0,0,1,5.42,1.81A11.34,11.34,0,0,1,150,7.76a17.14,17.14,0,0,1,1.14,3.67,28.66,28.66,0,0,1,.88,4.93"/><path class="cls-9" d="M142.37,18.3c-.56-1.92-2.41-5.61-1.56-7.61a2.1,2.1,0,0,1,2.28-1.5,2.07,2.07,0,0,1,1.57.85,5,5,0,0,1,.8,1.66,26.69,26.69,0,0,1,1.29,6.12"/><path class="cls-11" d="M228.3,220a5.14,5.14,0,0,1-1.22.47,20.25,20.25,0,0,0-5.49,2.62c-1,.64-1.93,1.53-1.91,2.68a1.34,1.34,0,0,0,.27.82,1.83,1.83,0,0,0,1,.54c2.4.64,4.95.1,7.42.36a10.51,10.51,0,0,0,3.66.13,7.31,7.31,0,0,0,2.78-1.7,24.17,24.17,0,0,1,5.94-4.06,9.65,9.65,0,0,0,2-1,2.11,2.11,0,0,0,.94-1.88c-.14-.92-1.06-1.49-1.92-1.83-3.44-1.36-7.28-1.13-11-.87a1,1,0,0,0-.62.19c-.28.26-.17.72,0,1.05.49.82.24.74-.44,1.24C229.23,219.13,228.84,219.65,228.3,220Z"/><path class="cls-11" d="M78.19,240c-1.5-1-2.74-2.91-2-4.52s2.78-1.81,4.49-1.89c3-.12,6.14-.21,8.76,1.23,3,1.66,4.74,5.06,7.68,6.87.88.55,2,1.38,1.64,2.34a2,2,0,0,1-.9.82,53.51,53.51,0,0,1-11.17,4.92c-1.42.45-3.19.75-4.23-.32a3.22,3.22,0,0,1-.74-1.5c-.42-1.7.89-3.61.53-5C81.89,241.29,79.48,240.8,78.19,240Z"/><path class="cls-11" d="M15.45,165.46a3.18,3.18,0,0,0-2.89-.8,18.48,18.48,0,0,0-9.3,4.14,3.81,3.81,0,0,0-1.76,2.56c-.06,1.45,1.43,2.51,2.85,2.77,1.93.37,3.69.24,5.57.88,1.41.47,2.5,1.3,3.95.4C16,174.11,16.88,167.27,15.45,165.46Z"/><path class="cls-9" d="M129,31.93a34.25,34.25,0,0,0-4.09,6.15A16,16,0,0,0,123,44a2,2,0,0,0,.41,1.68,1.68,1.68,0,0,0,1.57.29,40,40,0,0,0,5.62-2.65c2.69-1.53,4.86-3.32,7.51-4.59.77-.37,1.88-.57,2.33.16a1.79,1.79,0,0,1,.15,1.1,26.24,26.24,0,0,1-4.19,12.29"/></g></g></svg>